<?xml version="1.0" encoding="UTF-8"?>
<svg id="Layer_1" data-name="Layer 1" width="130" xmlns="http://www.w3.org/2000/svg" viewBox="0 0 161.56 45.85">
  <defs>
    <style>
      .cls-1-navbar-logo {
        fill: #2ac573;
      }

      .cls-1-navbar-logo, .cls-2-navbar-logo, .cls-3-navbar-logo, .cls-4-navbar-logo {
        stroke-width: 0px;
      }

      .cls-2-navbar-logo {
        fill: #fff;
      }

      .cls-3-navbar-logo {
        fill: #ffd337;
      }

      .cls-4-navbar-logo {
        fill: #f06331;
      }
    </style>
  </defs>
  <g>
    <path class="cls-3-navbar-logo" d="m23.81,29.57L13.31,11.43.38,33.86c-1.08,1.88.27,4.22,2.44,4.22h16.05l4.93-8.51Z"/>
    <path class="cls-1-navbar-logo" d="m32.02,15.4L23.96,1.41c-.54-.94-1.49-1.41-2.44-1.41s-1.9.47-2.44,1.41l-3.6,6.24,10.51,18.15,6.03-10.4Z"/>
    <path class="cls-4-navbar-logo" d="m34.22,19.21l8.45,14.66c1.08,1.88-.27,4.22-2.44,4.22h-16.98l10.97-18.88Z"/>
  </g>
  <path class="cls-2-navbar-logo" d="m52.48,38.09c.13-.31.24-.56.35-.81.51-1.09,1.03-2.19,1.54-3.28.86-1.85,1.72-3.71,2.58-5.56.55-1.18,1.1-2.36,1.65-3.54.86-1.84,1.71-3.69,2.56-5.53.54-1.17,1.09-2.34,1.63-3.51.75-1.63,1.5-3.27,2.26-4.9.04-.08.17-.16.26-.16,1.34-.01,2.68-.01,4.02,0,.09,0,.22.09.26.17.5,1.06.99,2.13,1.48,3.2.36.77.73,1.53,1.08,2.3.93,2.01,1.86,4.02,2.79,6.02.5,1.08,1.01,2.15,1.51,3.22.93,2.02,1.86,4.04,2.8,6.05.91,1.96,1.83,3.91,2.74,5.87.06.13.11.27.17.44-.09,0-.17.02-.25.02-1.47,0-2.94,0-4.41,0-.17,0-.3-.02-.38-.21-.33-.75-.67-1.49-1.01-2.23-.32-.68-.65-1.36-.96-2.04-.09-.19-.19-.26-.41-.26-4.96,0-9.93,0-14.89,0-.24,0-.33.08-.42.29-.23.57-.5,1.12-.75,1.68-.38.84-.77,1.67-1.15,2.51-.08.18-.17.27-.4.26-1.45-.01-2.9,0-4.35,0h-.32Zm20.44-9.29c-1.87-4.02-3.72-8.01-5.6-12.07-1.89,4.08-3.74,8.07-5.6,12.07h11.2Z"/>
  <path class="cls-2-navbar-logo" d="m84.22,18.59h4.25v2.53s.04.02.06.03c.09-.11.17-.22.26-.33,1.29-1.4,2.84-2.32,4.75-2.56.77-.1,1.56-.16,2.34-.12,1.37.07,2.67.47,3.86,1.17,1.48.88,2.6,2.13,3.36,3.67.52,1.07.92,2.19,1.01,3.38.08,1,.17,2.02.12,3.02-.06,1.3-.37,2.57-.88,3.78-.45,1.06-1.06,2.01-1.85,2.83-.84.87-1.84,1.52-2.98,1.97-1.36.54-2.78.68-4.21.57-1.66-.13-3.18-.7-4.47-1.79-.46-.39-.89-.83-1.34-1.25v10.35h-4.28v-27.26Zm9.83,15.9c.35-.03.71-.05,1.05-.1,1.45-.2,2.64-.87,3.53-2.02.88-1.13,1.23-2.46,1.25-3.86.01-.7-.09-1.43-.26-2.11-.4-1.61-1.33-2.86-2.84-3.6-1.44-.71-2.96-.78-4.51-.36-1.42.39-2.5,1.24-3.19,2.51-.98,1.8-1.04,3.71-.48,5.66.32,1.11.95,2.04,1.86,2.73,1.04.8,2.25,1.17,3.58,1.15Z"/>
  <path class="cls-2-navbar-logo" d="m150.3,38.07h-4.24v-2.56c-.18.21-.34.37-.48.55-1,1.21-2.31,1.89-3.83,2.23-.8.18-1.61.23-2.43.18-1.42-.09-2.75-.47-3.9-1.36-1.25-.97-1.91-2.26-2.11-3.82-.16-1.29,0-2.53.59-3.69.51-.99,1.29-1.74,2.26-2.27,1.1-.61,2.3-.89,3.55-.99,1.16-.09,2.31-.25,3.46-.38.62-.07,1.25-.12,1.87-.19.89-.1,1.03-.46.99-1.24-.03-.48-.14-.93-.45-1.33-.42-.55-.98-.84-1.62-.99-1.58-.38-3.14-.31-4.63.34-.91.4-1.6,1.07-1.94,2.05-.04.13-.1.25-.15.4-.51-.31-1.01-.61-1.5-.92-.59-.38-1.17-.77-1.76-1.14-.14-.09-.17-.14-.11-.3.32-.87.79-1.63,1.46-2.29.78-.77,1.71-1.28,2.73-1.64.87-.3,1.76-.49,2.67-.52.76-.03,1.53-.1,2.29-.05,1.68.1,3.29.43,4.7,1.45,1.14.82,1.81,1.94,2.19,3.26.23.81.33,1.64.33,2.49,0,4.22.04,8.44.06,12.66,0,.02-.01.04-.03.08Zm-4.28-8.95c-.43.05-.83.1-1.23.15-.58.07-1.16.13-1.74.2-.78.1-1.56.23-2.34.31-.65.06-1.27.2-1.85.52-1.37.77-1.56,2.58-.51,3.62.66.66,1.52.81,2.4.85.39.02.78-.06,1.17-.12,1.3-.2,2.37-.83,3.19-1.83.87-1.06,1.02-2.33.91-3.69Z"/>
  <path class="cls-2-navbar-logo" d="m129.05,32.24c.83,1.15,1.64,2.28,2.46,3.42-.88.86-1.83,1.57-2.97,1.99-.79.29-1.59.57-2.42.74-.69.14-1.4.13-2.11.15-1.44.06-2.84-.21-4.18-.72-1.1-.42-2.08-1.04-2.95-1.85-.84-.79-1.52-1.69-2.02-2.73-.45-.93-.78-1.9-.87-2.93-.09-1.01-.19-2.04-.12-3.05.15-1.99.81-3.81,2.05-5.41,1.2-1.55,2.76-2.57,4.59-3.18.79-.26,1.63-.37,2.46-.47.65-.08,1.31-.11,1.96-.07,1.99.13,3.83.7,5.43,1.93.19.15.39.29.58.45.17.15.33.32.49.48-.86,1.13-1.72,2.24-2.56,3.34-.46-.35-.89-.71-1.36-1.02-.79-.52-1.67-.85-2.62-.98-1.66-.23-3.18.13-4.51,1.13-.75.56-1.3,1.32-1.66,2.2-.39.96-.57,1.96-.51,2.99.1,1.73.69,3.26,2.02,4.42.81.7,1.77,1.11,2.83,1.26,2.01.29,3.76-.3,5.32-1.53.22-.17.42-.36.66-.56Z"/>
  <path class="cls-2-navbar-logo" d="m106.92,38.07v-19.48h4.24v19.48h-4.24Z"/>
  <path class="cls-2-navbar-logo" d="m112.04,12.99c.11,1.62-1.22,3.11-3.16,3-1.57-.09-2.81-1.23-2.8-3.01,0-1.7,1.25-3.01,3.09-2.97,1.57.04,2.96,1.2,2.88,2.98Z"/>
  <path class="cls-2-navbar-logo" d="m158.31,38.48c-1.85.04-3.31-1.43-3.24-3.37.05-1.68,1.36-3.19,3.4-3.12,1.69.06,3.16,1.35,3.1,3.39-.06,1.72-1.36,3.12-3.25,3.1Zm.02-5.64c-1.35-.03-2.41,1.04-2.42,2.38,0,1.38,1.04,2.42,2.38,2.41,1.39,0,2.4-.97,2.42-2.35.03-1.43-1.03-2.46-2.39-2.45Z"/>
  <path class="cls-2-navbar-logo" d="m157.86,35.72v1.11h-.7v-3.28c.57,0,1.15-.05,1.71.02.49.06.71.3.86.96.07.32-.2.84-.52,1.03-.05.03-.11.06-.18.1.23.39.46.77.7,1.17-.08.01-.11.02-.14.02-.47.09-.82-.04-1-.52-.05-.14-.17-.25-.22-.39-.09-.26-.26-.31-.52-.23Zm0-.66c.28-.02.53-.05.78-.07.27-.03.32-.2.31-.43-.01-.25-.18-.33-.38-.36-.23-.03-.47,0-.71,0v.86Z"/>
</svg>
