<svg version="1.1" id="Layer_1" xmlns="http://www.w3.org/2000/svg" xmlns:xlink="http://www.w3.org/1999/xlink" x="0px" y="0px"
	 width="2.5rem" viewBox="0 0 900 900" enable-background="new 0 0 900 900" xml:space="preserve">
<path fill="#FFD238" opacity="1.000000" stroke="none"
	d="
M314.000000,725.268555
	C236.849457,725.269043 160.192978,724.704407 83.550888,725.509399
	C45.627869,725.907715 18.533247,684.317322 39.073792,648.767639
	C72.118652,591.576599 105.152031,534.378784 138.113663,477.139771
	C167.417877,426.251953 196.595901,375.291473 225.873581,324.388306
	C240.308365,299.291534 254.842239,274.251770 269.331512,249.186325
	C271.714355,245.064178 272.248627,245.054459 274.704102,249.301361
	C300.849701,294.521606 326.947479,339.769592 353.129700,384.968658
	C382.650940,435.931854 412.251801,486.848907 441.802124,537.795288
	C447.814087,548.160156 453.665131,558.619812 459.796326,568.913147
	C461.224274,571.310486 461.043854,573.116638 459.748444,575.342957
	C437.824036,613.024170 415.939209,650.728394 394.048096,688.428894
	C387.618195,699.502319 381.122009,710.538452 374.824493,721.686646
	C373.321625,724.347107 371.562683,725.355896 368.487732,725.332703
	C350.492676,725.196899 332.496094,725.267456 314.000000,725.268555
z"/>
<path fill="#2AC572" opacity="1.000000" stroke="none"
	d="
M355.914612,254.093277
	C341.556305,229.282303 327.393616,204.779816 313.126038,180.338577
	C311.606689,177.735809 311.606201,175.772614 313.162720,173.088501
	C333.956421,137.231445 354.609894,101.293076 375.302063,65.377136
	C385.286285,48.047272 400.264984,38.819992 420.278107,38.869087
	C440.307220,38.918224 455.106842,48.334644 465.079346,65.663033
	C498.955231,124.526337 532.898499,183.350830 566.813660,242.191559
	C580.365051,265.702423 593.867981,289.241455 607.513550,312.697510
	C609.143738,315.499695 609.133911,317.602509 607.486938,320.433533
	C572.908813,379.869812 538.434937,439.366699 503.935364,498.848633
	C503.031586,500.406952 502.069153,501.931244 500.690247,504.202362
	C452.233826,420.504395 404.156891,337.461945 355.914612,254.093277
z"/>
<path fill="#F06230" opacity="1.000000" stroke="none"
	d="
M789.188843,713.912415
	C788.984497,714.519897 788.791565,714.768677 788.205383,714.937012
	C786.924988,715.875183 785.675903,716.353638 784.318481,717.088684
	C784.245605,717.415894 784.165466,717.259277 784.253418,717.261841
	C783.328247,717.653870 782.600159,718.627686 781.260559,718.975098
	C781.095520,719.264160 781.078125,719.134644 781.141663,719.149841
	C778.072815,720.634827 775.000610,722.273499 771.271912,722.949768
	C771.070435,723.263062 771.039429,723.143188 771.101257,723.146484
	C764.333862,724.798950 757.390503,725.020691 750.399719,725.018372
	C653.714294,724.986145 557.028809,725.008667 460.343445,724.929626
	C457.997803,724.927673 454.837311,726.385254 453.604156,722.235352
	C453.676147,721.741455 453.756592,721.838867 453.693481,721.835999
	C454.511475,721.674744 454.493195,720.910034 454.781464,719.953125
	C462.040222,705.520630 470.468353,692.140747 478.388672,678.475708
	C520.058228,606.582642 561.839355,534.754272 603.584473,462.904999
	C617.804810,438.429749 632.027649,413.955933 646.262817,389.489288
	C648.940918,384.886353 649.017639,384.876068 651.664001,389.465942
	C701.653931,476.168793 751.701538,562.838501 801.562195,649.615723
	C813.724304,670.782776 809.301331,695.492371 790.636169,712.969238
	C789.949951,713.187622 789.624512,713.387451 789.188843,713.912415
z"/>
</svg>
